<?xml version="1.0" standalone="no"?><svg xmlns="http://www.w3.org/2000/svg" viewBox="0 0 1440 320"><path fill="#0099ff" fill-opacity="1" d="M0,96L24,117.3C48,139,96,181,144,202.7C192,224,240,224,288,192C336,160,384,96,432,106.7C480,117,528,203,576,218.7C624,235,672,181,720,160C768,139,816,149,864,133.3C912,117,960,75,1008,90.7C1056,107,1104,181,1152,192C1200,203,1248,149,1296,138.7C1344,128,1392,160,1416,176L1440,192L1440,320L1416,320C1392,320,1344,320,1296,320C1248,320,1200,320,1152,320C1104,320,1056,320,1008,320C960,320,912,320,864,320C816,320,768,320,720,320C672,320,624,320,576,320C528,320,480,320,432,320C384,320,336,320,288,320C240,320,192,320,144,320C96,320,48,320,24,320L0,320Z"></path></svg>